<svg width="12" height="13" viewBox="0 0 12 13" fill="none" xmlns="http://www.w3.org/2000/svg">
<path d="M5.31398 0.74549C2.60751 1.04741 0.409382 3.19626 0.0534362 5.89612C-0.450892 9.72205 2.67698 12.977 6.46568 12.6895C7.85937 12.5837 9.1639 11.9609 10.1861 11.0076L10.2738 10.9258C10.3748 10.8316 10.3804 10.6734 10.2862 10.5724L9.94505 10.2066C9.85087 10.1056 9.69269 10.1001 9.5917 10.1943L9.40882 10.3648C8.27187 11.425 6.71107 11.9019 5.13654 11.6338C2.90494 11.2537 1.18941 9.35912 1.01515 7.10209C0.784733 4.11749 3.19223 1.62339 6.1481 1.70929C8.8736 1.78853 10.9999 4.11435 10.9999 6.841V7.20714C10.9999 7.79153 10.4963 8.26023 9.90016 8.20229C9.38065 8.15176 8.99988 7.68482 8.99988 7.16282V4.95716C8.99988 4.81907 8.88794 4.70715 8.74987 4.70715H8.24988C8.1495 4.70715 8.06423 4.76715 8.02446 4.85254C7.52137 4.30379 6.80126 3.95715 5.99988 3.95715C4.48352 3.95715 3.24989 5.19079 3.24989 6.70715C3.24989 8.22351 4.48352 9.45716 5.99988 9.45716C6.95508 9.45716 7.79733 8.96711 8.29047 8.22576C8.66177 8.84626 9.35163 9.25518 10.1369 9.20256C11.1987 9.13143 11.9999 8.2007 11.9999 7.13655V6.70715C11.9999 3.17282 8.92795 0.342318 5.31398 0.74549ZM5.99988 8.45715C5.03503 8.45715 4.24987 7.672 4.24987 6.70715C4.24987 5.74229 5.03503 4.95714 5.99988 4.95714C6.96473 4.95714 7.74989 5.74229 7.74989 6.70715C7.74989 7.672 6.96473 8.45715 5.99988 8.45715Z" fill="white" fill-opacity="0.8"/>
</svg>
