<svg width="148" height="28" viewBox="0 0 148 28" fill="none" xmlns="http://www.w3.org/2000/svg">
<path d="M9.50399 7.60628C6.68556 7.60628 3.27724 7.98893 1.57307 8.49912V12.8996C3.53942 12.3894 5.50576 11.8154 7.86537 11.8154C11.4048 11.8154 13.7644 12.6445 13.7644 15.2592V15.9608C11.4048 15.1317 9.43844 15.0042 7.93091 15.0042C4.32595 15.0042 0 16.3434 0 20.6801C0 24.1239 2.75288 26.8025 7.53764 26.8025C11.0115 26.8025 13.3056 25.527 14.4198 24.7617L14.9442 26.4198H19.3357V15.1955C19.3357 9.45575 15.0753 7.60628 9.50399 7.60628ZM5.76794 20.8077C5.76794 19.4046 6.8822 18.5755 9.17626 18.5755C11.1426 18.5755 12.6501 18.8306 13.7644 19.3408V21.573C12.5846 22.1469 11.0115 22.8484 9.30735 22.8484C6.94774 22.8484 5.76794 22.0194 5.76794 20.8077ZM32.3136 7.60628C26.9389 7.60628 23.0062 9.20065 23.0062 13.2185C23.0062 15.5781 23.8583 17.6827 28.0531 18.5118L32.1825 19.3408C34.7387 19.851 35.0664 20.3612 35.0664 20.9352C35.0664 21.9556 34.2144 22.4658 30.806 22.4658C28.1842 22.4658 24.7104 21.6367 23.3995 21.1903V25.6545C24.907 26.1647 28.4464 26.8025 30.9371 26.8025C37.9504 26.8025 40.5722 24.2515 40.5722 20.7439C40.5722 18.0016 38.9991 16.2159 35.0009 15.3868L31.1993 14.5577C28.9052 14.0475 28.3809 14.0475 28.3809 13.2185C28.3809 12.0067 31.0027 11.8792 32.7068 11.8792C34.6732 11.8792 36.7706 12.1981 39.3924 13.0909V8.75422C37.7538 8.11648 35.3286 7.60628 32.3136 7.60628ZM56.1718 7.98893H50.2728V3.26959H45.5536L44.8981 7.98893H41.4898V12.3256H44.7015V20.425C44.7015 25.2719 47.9787 26.8025 51.9114 26.8025C53.6811 26.8025 54.7299 26.6749 56.1718 26.1647V21.8281C55.1887 22.1469 53.8122 22.3382 53.0912 22.3382C50.7972 22.3382 50.2728 21.2541 50.2728 19.4684V12.3256H56.1718V7.98893ZM78.3915 19.2133V16.6623C78.3915 10.8588 75.1143 7.60628 68.8875 7.60628C63.4473 7.60628 58.4004 10.6037 58.4004 17.0449C58.4004 23.8688 62.7919 26.8025 69.543 26.8025C72.2958 26.8025 75.1798 26.1647 77.3428 25.527V21.2541C75.3109 21.8918 72.3614 22.5296 69.674 22.5296C67.5766 22.5296 64.496 21.9556 64.1027 19.2133H78.3915ZM64.1027 15.8332C64.4305 13.0271 66.2002 11.8154 68.9531 11.8154C71.3127 11.8154 72.6236 13.346 72.6236 15.8332H64.1027ZM86.519 7.98893H82.062V26.4198H87.6333V14.6215C89.403 13.6011 91.6971 12.7083 94.7121 12.772V7.60628C91.4349 7.67005 89.0753 8.75422 87.1745 10.0297L86.519 7.98893ZM113.72 26.4198V1.61145H108.149V26.4198H113.72ZM120.996 7.98893C118.702 10.5399 116.67 13.2822 114.113 17.1725C117.784 20.8714 120.209 23.8051 121.979 26.4198H128.795C128.074 25.4632 123.683 19.851 120.275 16.8536C122.765 13.6649 124.928 11.1139 127.681 7.98893H120.996ZM147.934 11.4965V7.98893H130.172V12.3256H140.659L129.91 22.8484V26.4198H148V22.0831H137.12L147.934 11.4965Z" fill="#FEFEFE"/>
<path d="M100.546 26.7382C99.3666 26.7382 98.3835 26.3555 97.5314 25.5902C96.7448 24.8249 96.3516 23.8046 96.3516 22.6566C96.3516 21.4449 96.7448 20.4883 97.5314 19.7867C98.3179 19.0214 99.3666 18.6388 100.546 18.6388C101.792 18.6388 102.775 19.0214 103.562 19.7867C104.348 20.4883 104.741 21.4449 104.741 22.6566C104.741 23.8046 104.348 24.8249 103.562 25.5902C102.775 26.3555 101.726 26.7382 100.546 26.7382Z" fill="#F7D117"/>
</svg>
